<svg xmlns="http://www.w3.org/2000/svg" viewBox="0 0 512 512"><rect width="512" height="512" rx="96" fill="#0e7c7b"/><g transform="translate(60.50 409.99) scale(0.20396 -0.20396)" fill="#f6f7f4"><path transform="translate(0 0)" d="M553 0Q105 0 105 416Q105 542 141.5 690.0Q178 838 241.5 989.0Q305 1140 388.0 1275.5Q471 1411 564 1510L710 1428Q584 1284 486.0 1111.0Q388 938 332.5 765.0Q277 592 276 448Q276 301 341.0 235.0Q406 169 553 169H800V0Z"/><path transform="translate(904 0)" d="M157 0V172H337Q516 172 627.0 275.0Q738 378 739 559Q738 737 627.0 842.5Q516 948 337 948H157V1117H337Q507 1117 635.0 1047.5Q763 978 835.0 852.5Q907 727 908 559Q907 391 835.0 265.0Q763 139 635.0 69.5Q507 0 337 0Z"/></g></svg>